<svg width="47" height="47" viewBox="0 0 47 47" fill="none" xmlns="http://www.w3.org/2000/svg">
<path d="M36.8125 15.5H9.68751C8.66976 15.5 7.66197 15.7004 6.7217 16.0899C5.78142 16.4794 4.92706 17.0502 4.2074 17.7699C3.48775 18.4896 2.91689 19.3439 2.52742 20.2842C2.13794 21.2245 1.93749 22.2323 1.9375 23.25V36.8125C1.9375 38.8679 2.75402 40.8392 4.20743 42.2926C5.66083 43.746 7.63208 44.5625 9.68751 44.5625H36.8125C38.868 44.5625 40.8392 43.746 42.2926 42.2926C43.746 40.8392 44.5625 38.8679 44.5625 36.8125V23.25C44.5625 22.2323 44.3621 21.2245 43.9726 20.2842C43.5831 19.3439 43.0123 18.4896 42.2926 17.7699C41.573 17.0502 40.7186 16.4794 39.7783 16.0899C38.8381 15.7004 37.8303 15.5 36.8125 15.5ZM15.5 38.75H13.5625C13.5625 38.2361 13.3584 37.7433 12.995 37.38C12.6317 37.0166 12.1389 36.8125 11.625 36.8125C11.1111 36.8125 10.6183 37.0166 10.255 37.38C9.89163 37.7433 9.68751 38.2361 9.68751 38.75H7.75V21.3125H15.5V38.75ZM29.0625 36.8125H23.25V31H29.0625V36.8125ZM29.0625 27.125H23.25V21.3125H29.0625V27.125ZM38.75 36.8125H32.9375V31H38.75V36.8125ZM38.75 27.125H32.9375V21.3125H38.75V27.125Z" fill="#000000"/>
<path d="M21.3125 9.6875H23.25C24.2777 9.6875 25.2633 9.27924 25.99 8.55254C26.7167 7.82583 27.125 6.84021 27.125 5.8125C27.125 4.78479 26.7167 3.79916 25.99 3.07246C25.2633 2.34576 24.2777 1.9375 23.25 1.9375H11.625C10.5973 1.9375 9.61167 2.34576 8.88496 3.07246C8.15826 3.79916 7.75 4.78479 7.75 5.8125C7.75 6.84021 8.15826 7.82583 8.88496 8.55254C9.61167 9.27924 10.5973 9.6875 11.625 9.6875H21.3125Z" fill="#23375A"/>
</svg>
