<svg width="124" height="28" viewBox="0 0 124 28" fill="none" xmlns="http://www.w3.org/2000/svg">
    <path d="M13.282 27.119C10.5072 27.119 8.13014 26.5455 6.15079 25.4078C4.17144 24.2702 2.65455 22.6793 1.59088 20.6444C0.52721 18.6096 0 16.251 0 13.5687C0 10.8772 0.53646 8.50936 1.60013 6.47451C2.6638 4.43967 4.18993 2.84879 6.16929 1.71112C8.14864 0.573457 10.5165 0 13.2635 0C15.6961 0 17.8142 0.443967 19.6178 1.3134C21.4306 2.19209 22.8365 3.43149 23.8632 5.03162C23.8725 5.05012 23.8817 5.05937 23.891 5.07787C25.4171 7.51044 23.632 10.6737 20.7647 10.6737H20.3947C18.9981 10.6737 17.7032 9.89676 17.0927 8.6481C16.88 8.21338 16.6118 7.83416 16.2973 7.51044C15.5481 6.74274 14.5769 6.36352 13.3837 6.36352C12.4126 6.36352 11.5616 6.63175 10.8309 7.17746C10.1002 7.72317 9.53603 8.51861 9.12906 9.57303C8.7221 10.6275 8.51861 11.9316 8.51861 13.4855C8.51861 15.0394 8.7221 16.3435 9.12906 17.4164C9.53603 18.4801 10.1002 19.2848 10.8309 19.8305C11.5616 20.3762 12.4126 20.6444 13.3837 20.6444C14.1607 20.6444 14.8451 20.478 15.4463 20.145C16.0475 19.812 16.5378 19.3218 16.9262 18.6836C16.991 18.5819 17.0465 18.4709 17.102 18.3599C17.7309 17.102 19.0351 16.325 20.441 16.325H20.6907C23.5857 16.325 25.3986 19.4883 23.891 21.9578C23.8817 21.9763 23.8725 21.9948 23.8632 22.0041C22.8643 23.6227 21.4676 24.8806 19.6733 25.7778C17.8789 26.675 15.7516 27.119 13.282 27.119Z" fill="#CE2229"/>
    <path d="M36.9509 27.1191C34.9253 27.1191 33.1864 26.7029 31.7343 25.8705C30.2822 25.038 29.163 23.8726 28.386 22.3835C27.5999 20.8851 27.2114 19.1555 27.2114 17.1761C27.2114 15.1968 27.5999 13.4579 28.386 11.9595C29.1722 10.4611 30.2822 9.30497 31.7343 8.47253C33.1864 7.6401 34.9253 7.22388 36.9509 7.22388C38.9765 7.22388 40.7154 7.6401 42.1675 8.47253C43.6197 9.30497 44.7388 10.4704 45.5158 11.9595C46.3019 13.4579 46.6904 15.1968 46.6904 17.1761C46.6904 19.1555 46.3019 20.8851 45.5158 22.3835C44.7296 23.8819 43.6197 25.038 42.1675 25.8705C40.7154 26.7029 38.9765 27.1191 36.9509 27.1191ZM36.9879 22.4852C37.7278 22.4852 38.3475 22.2632 38.8563 21.81C39.365 21.3568 39.7534 20.7279 40.0309 19.9232C40.2991 19.1185 40.4379 18.1936 40.4379 17.1391C40.4379 16.0662 40.2991 15.132 40.0309 14.3273C39.7627 13.5227 39.365 12.8937 38.8563 12.4405C38.3475 11.9873 37.7186 11.7653 36.9879 11.7653C36.2295 11.7653 35.582 11.9873 35.064 12.4405C34.5368 12.8937 34.1391 13.5227 33.8709 14.3273C33.6027 15.132 33.4639 16.0662 33.4639 17.1391C33.4639 18.1936 33.6027 19.1185 33.8709 19.9232C34.1391 20.7279 34.5368 21.3568 35.064 21.81C35.582 22.2632 36.2295 22.4852 36.9879 22.4852Z" fill="#CE2229"/>
    <path d="M55.9862 4.47678V24.0483C55.9862 25.7409 54.608 27.1191 52.9154 27.1191C51.2228 27.1191 49.8446 25.7409 49.8446 24.0483V4.47678C49.8446 2.78415 51.2228 1.40601 52.9154 1.40601C54.608 1.40601 55.9862 2.78415 55.9862 4.47678Z" fill="#CE2229"/>
    <path d="M66.0123 4.47678V24.0483C66.0123 25.7409 64.6341 27.1191 62.9415 27.1191C61.2489 27.1191 59.8707 25.7409 59.8707 24.0483V4.47678C59.8707 2.78415 61.2489 1.40601 62.9415 1.40601C64.6341 1.40601 66.0123 2.78415 66.0123 4.47678Z" fill="#CE2229"/>
    <path d="M78.9151 27.1191C76.8987 27.1191 75.1599 26.7214 73.6985 25.9167C72.2371 25.1213 71.1179 23.9744 70.3317 22.4852C69.5455 20.9961 69.1571 19.2295 69.1571 17.1854C69.1571 15.1968 69.5548 13.4487 70.341 11.9595C71.1272 10.4611 72.2371 9.30497 73.6707 8.47253C75.1044 7.6401 76.7877 7.22388 78.7301 7.22388C80.099 7.22388 81.3569 7.43661 82.4946 7.86208C83.6322 8.28755 84.6127 8.9165 85.4451 9.75819C86.2775 10.5906 86.9157 11.6265 87.3782 12.8567C87.8407 14.0869 88.0719 15.4835 88.0719 17.0651C88.0719 17.9068 87.3875 18.6005 86.5365 18.6005H71.3122V15.0395H82.3558C82.3466 14.3828 82.1893 13.8094 81.8934 13.2914C81.5881 12.7827 81.1812 12.385 80.654 12.089C80.1267 11.8023 79.5348 11.6543 78.8503 11.6543C78.1659 11.6543 77.5462 11.8115 77.0005 12.1168C76.4548 12.422 76.0293 12.8382 75.7056 13.3562C75.3911 13.8834 75.2246 14.4753 75.2061 15.132V18.7578C75.2061 19.544 75.3634 20.2284 75.6686 20.8204C75.9738 21.4123 76.4178 21.8655 76.9912 22.1985C77.5647 22.5222 78.2399 22.6887 79.0261 22.6887C79.5718 22.6887 80.062 22.6147 80.506 22.4667C80.9499 22.3187 81.3292 22.0968 81.6529 21.8008L81.6621 21.7915C82.3928 21.1163 83.364 20.7464 84.3629 20.7741L84.9641 20.7926C86.666 20.8389 87.5909 22.8367 86.4903 24.1501C86.481 24.1594 86.4718 24.1686 86.4625 24.1779C85.6671 25.112 84.6404 25.8335 83.3548 26.3514C82.0784 26.8602 80.5985 27.1191 78.9151 27.1191Z" fill="#CE2229"/>
    <path d="M100.226 27.1191C98.1907 27.1191 96.4518 26.7029 94.9997 25.8612C93.5475 25.0288 92.4284 23.8541 91.6514 22.365C90.8745 20.8666 90.486 19.137 90.486 17.1761C90.486 15.1967 90.8745 13.4671 91.6607 11.9687C92.4469 10.4704 93.5568 9.30494 95.0089 8.4725C96.4611 7.64007 98.1999 7.2146 100.216 7.2146C102.001 7.2146 103.555 7.53833 104.878 8.18578C106.201 8.83323 107.246 9.73966 107.995 10.9143C108.004 10.9236 108.013 10.9421 108.013 10.9513C109.133 12.7364 107.828 15.0488 105.72 15.0488H105.451C104.425 15.0488 103.481 14.4846 103.028 13.5596C102.871 13.2451 102.677 12.9584 102.445 12.7272C101.9 12.163 101.187 11.8855 100.309 11.8855C99.5966 11.8855 98.9769 12.089 98.4404 12.4775C97.904 12.8752 97.4877 13.4579 97.1918 14.2348C96.8958 15.0118 96.7478 15.9644 96.7478 17.1021C96.7478 18.2398 96.8958 19.2017 97.1918 19.9879C97.4877 20.7741 97.904 21.3568 98.4404 21.7545C98.9769 22.1522 99.5966 22.3465 100.309 22.3465C100.882 22.3465 101.382 22.2262 101.826 21.9857C102.26 21.7453 102.63 21.3845 102.908 20.9128C102.954 20.8296 103 20.7556 103.037 20.6723C103.491 19.7567 104.452 19.1924 105.47 19.1924H105.692C107.801 19.1924 109.114 21.4955 108.023 23.2991C108.013 23.3176 107.995 23.3454 107.986 23.3639C107.255 24.5478 106.228 25.4727 104.906 26.1294C103.592 26.7954 102.029 27.1191 100.226 27.1191Z" fill="#CE2229"/>
    <path d="M123.21 9.80412C123.21 11.0528 122.202 12.0609 120.953 12.0609H113.304C112.055 12.0609 111.047 11.0528 111.047 9.80412C111.047 8.55546 112.055 7.54729 113.304 7.54729H120.953C122.202 7.54729 123.21 8.55546 123.21 9.80412ZM116.662 2.93188C118.354 2.93188 119.732 4.31003 119.732 6.00265V20.7738C119.732 21.153 119.797 21.4582 119.917 21.6802C120.038 21.9115 120.213 22.0779 120.454 22.1704C120.685 22.2629 120.972 22.3092 121.295 22.3184C122.109 22.3277 122.803 22.9011 122.97 23.6873L122.997 23.8353C123.34 25.4724 122.137 27.0356 120.463 27.1096C120.454 27.1096 120.435 27.1096 120.426 27.1096C118.9 27.1743 117.753 27.0078 116.726 26.6009C115.7 26.1939 114.923 25.5649 114.377 24.6955C113.84 23.8353 113.572 22.7531 113.591 21.4397V5.9934C113.591 4.30078 114.969 2.93188 116.662 2.93188Z" fill="#CE2229"/>
</svg>