<svg width="40" height="41" viewBox="0 0 40 41" fill="none" xmlns="http://www.w3.org/2000/svg">
<path d="M35.989 0H4.001C1.80045 0 0 1.80045 0 4.001V40.01L7.982 32.008H35.989C38.1896 32.008 39.99 30.2076 39.99 28.007V4.001C39.99 1.80045 38.1896 0 35.989 0ZM21.9855 24.006H17.9845V20.005H21.9855V24.006ZM21.9855 14.0035C21.9855 15.1038 21.0853 16.004 19.985 16.004C18.8847 16.004 17.9845 15.1038 17.9845 14.0035V10.0025C17.9845 8.90223 18.8847 8.002 19.985 8.002C21.0853 8.002 21.9855 8.90223 21.9855 10.0025V14.0035Z" fill="#23375A"/>
</svg>
