<svg width="36" height="45" viewBox="0 0 36 45" fill="none" xmlns="http://www.w3.org/2000/svg">
<path d="M16.65 20.25H36V6.75C36 2.925 33.075 0 29.25 0H6.75C2.925 0 0 2.925 0 6.75V38.25C0 42.075 2.925 45 6.75 45H29.25C33.075 45 36 42.075 36 38.25V24.75H16.65L21.825 29.925C22.725 30.825 22.725 32.175 21.825 33.075C20.925 33.975 19.575 33.975 18.675 33.075L9.675 24.075C8.775 23.175 8.775 21.825 9.675 20.925L18.675 11.925C19.575 11.025 20.925 11.025 21.825 11.925C22.725 12.825 22.725 14.175 21.825 15.075L16.65 20.25Z" fill="#23375A"/>
</svg>
