<svg width="16" height="22" viewBox="0 0 16 22" fill="none" xmlns="http://www.w3.org/2000/svg">
<path d="M8 0C6.04514 0 4.44444 1.60069 4.44444 3.55556V9.77778C4.44444 11.7326 6.04514 13.3333 8 13.3333C9.95486 13.3333 11.5556 11.7326 11.5556 9.77778V3.55556C11.5556 1.60069 9.95486 0 8 0ZM0 9.77778C0 13.8715 3.13194 17.2708 7.11111 17.7222V21.3333H8.88889V17.7222C12.8681 17.2708 16 13.8715 16 9.77778H14.2222C14.2222 13.2049 11.4271 16 8 16C4.57292 16 1.77778 13.2049 1.77778 9.77778H0Z" fill="white"/>
</svg>
