<svg width="40" height="40" viewBox="0 0 40 40" fill="none" xmlns="http://www.w3.org/2000/svg">
<path d="M20 0C14.6957 0 9.60859 2.10714 5.85786 5.85786C2.10714 9.60859 0 14.6957 0 20C0 25.3043 2.10714 30.3914 5.85786 34.1421C9.60859 37.8929 14.6957 40 20 40C25.3043 40 30.3914 37.8929 34.1421 34.1421C37.8929 30.3914 40 25.3043 40 20C40 14.6957 37.8929 9.60859 34.1421 5.85786C30.3914 2.10714 25.3043 0 20 0V0ZM28.38 25.5C28.7525 25.8747 28.9616 26.3816 28.9616 26.91C28.9616 27.4384 28.7525 27.9453 28.38 28.32C28.0107 28.6968 27.5075 28.9125 26.98 28.92C26.7154 28.9189 26.4536 28.8653 26.2099 28.7623C25.9661 28.6593 25.7452 28.509 25.56 28.32L20 22.82L14.44 28.38C14.2548 28.569 14.0339 28.7193 13.7901 28.8223C13.5464 28.9253 13.2846 28.9789 13.02 28.98C12.4925 28.9725 11.9893 28.7568 11.62 28.38C11.2475 28.0053 11.0384 27.4984 11.0384 26.97C11.0384 26.4416 11.2475 25.9347 11.62 25.56L17.18 20L11.62 14.44C11.2923 14.0574 11.1211 13.5652 11.1406 13.0619C11.16 12.5585 11.3687 12.0811 11.7249 11.7249C12.0811 11.3687 12.5585 11.16 13.0619 11.1406C13.5652 11.1211 14.0574 11.2923 14.44 11.62L20 17.18L25.56 11.62C25.9426 11.2923 26.4348 11.1211 26.9381 11.1406C27.4415 11.16 27.9189 11.3687 28.2751 11.7249C28.6313 12.0811 28.84 12.5585 28.8594 13.0619C28.8789 13.5652 28.7077 14.0574 28.38 14.44L22.82 20L28.38 25.5Z" fill="#23375A"/>
</svg>
