<svg width="40" height="40" viewBox="0 0 40 40" fill="none" xmlns="http://www.w3.org/2000/svg">
<path d="M10 20C10.0035 22.6511 11.0582 25.1926 12.9328 27.0672C14.8074 28.9418 17.3489 29.9965 20 30C22.2208 30.0024 24.3779 29.2584 26.125 27.8875L12.1125 13.875C10.7416 15.6221 9.9976 17.7792 10 20V20ZM20 10C17.7792 9.9976 15.6221 10.7416 13.875 12.1125L27.8875 26.125C29.2584 24.3779 30.0024 22.2208 30 20C29.9965 17.3489 28.9418 14.8074 27.0672 12.9328C25.1926 11.0582 22.6511 10.0035 20 10Z" fill="#23375A"/>
<path d="M39.1046 6.73337C38.9911 5.22256 38.3395 3.80257 37.2681 2.73124C36.1968 1.65992 34.7768 1.00832 33.266 0.894749C24.433 0.270374 15.567 0.270374 6.73401 0.894749C5.2232 1.00832 3.8032 1.65992 2.73188 2.73124C1.66056 3.80257 1.00895 5.22256 0.895386 6.73337C0.270386 15.5663 0.270386 24.4324 0.895386 33.2654C1.00895 34.7762 1.66056 36.1962 2.73188 37.2675C3.8032 38.3388 5.2232 38.9904 6.73401 39.104C15.5669 39.73 24.4331 39.73 33.266 39.104C34.7768 38.9904 36.1968 38.3388 37.2681 37.2675C38.3395 36.1962 38.9911 34.7762 39.1046 33.2654C39.7296 24.4324 39.7296 15.5663 39.1046 6.73337V6.73337ZM20 32.5C17.5277 32.5 15.111 31.7669 13.0554 30.3934C10.9998 29.0199 9.39761 27.0676 8.45152 24.7835C7.50542 22.4995 7.25788 19.9861 7.74019 17.5614C8.22251 15.1366 9.41302 12.9093 11.1612 11.1612C12.9093 9.41301 15.1366 8.2225 17.5614 7.74018C19.9861 7.25787 22.4995 7.50541 24.7836 8.4515C27.0676 9.3976 29.0199 10.9998 30.3934 13.0554C31.7669 15.111 32.5 17.5277 32.5 20C32.4946 23.3135 31.1758 26.4898 28.8328 28.8328C26.4898 31.1758 23.3135 32.4945 20 32.5V32.5Z" fill="#23375A"/>
</svg>
