<svg width="42" height="42" viewBox="0 0 42 42" fill="none" xmlns="http://www.w3.org/2000/svg">
<g clip-path="url(#clip0_9247_2)">
<path d="M29.6074 9.18748C30.8225 7.77302 31.5099 5.98115 31.5525 4.1169L31.5513 3.98487C31.5428 3.23534 31.3237 2.50331 30.919 1.87236C30.5143 1.2414 29.9404 0.736945 29.2627 0.416573C28.5685 0.0766987 27.7927 -0.060768 27.024 0.0199199C26.2553 0.100608 25.5248 0.396187 24.9164 0.872797L24.4107 1.26655C23.4357 2.02542 22.2355 2.43746 21 2.43746C19.7645 2.43746 18.5643 2.02542 17.5893 1.26655L17.0836 0.872797C16.4748 0.396825 15.7445 0.101649 14.9759 0.0209764C14.2074 -0.059696 13.4316 0.0773876 12.7373 0.416573C12.0604 0.736264 11.487 1.23969 11.0823 1.86948C10.6777 2.49926 10.4581 3.23006 10.4487 3.97857L10.4475 4.1169C10.4901 5.98115 11.1775 7.77302 12.3926 9.18748H29.6074Z" fill="#000000"/>
<path d="M31.1719 14.4375H31.5C31.8481 14.4375 32.1819 14.2992 32.4281 14.0531C32.6742 13.8069 32.8125 13.4731 32.8125 13.125C32.8125 12.7769 32.6742 12.4431 32.4281 12.1969C32.1819 11.9508 31.8481 11.8125 31.5 11.8125H22.4658C22.7073 12.9596 23.3301 14.4375 24.9375 14.4375C25.2856 14.4375 25.6194 14.5758 25.8656 14.8219C26.1117 15.0681 26.25 15.4019 26.25 15.75C26.25 16.0981 26.1117 16.4319 25.8656 16.6781C25.6194 16.9242 25.2856 17.0625 24.9375 17.0625C24.2631 17.0824 23.5928 16.9512 22.9757 16.6784C22.3587 16.4057 21.8104 15.9983 21.3712 15.4862C21.0732 16.4228 20.5687 17.2804 19.8948 17.9959C19.2209 18.7113 18.3949 19.2662 17.4778 19.6195C17.3129 19.6798 17.1377 19.7064 16.9624 19.6977C16.7871 19.6891 16.6154 19.6453 16.4573 19.5691C16.2992 19.493 16.158 19.3858 16.042 19.2541C15.926 19.1224 15.8377 18.9687 15.7821 18.8023C15.7265 18.6358 15.705 18.4598 15.7186 18.2849C15.7322 18.1099 15.7808 17.9394 15.8615 17.7836C15.9421 17.6277 16.0532 17.4896 16.1882 17.3774C16.3231 17.2653 16.4792 17.1813 16.6472 17.1305C18.7021 16.4447 19.3682 13.5416 19.5839 11.8125H10.5C10.1519 11.8125 9.81807 11.9508 9.57192 12.1969C9.32578 12.4431 9.1875 12.7769 9.1875 13.125C9.1875 13.4731 9.32578 13.8069 9.57192 14.0531C9.81807 14.2992 10.1519 14.4375 10.5 14.4375H10.8281C8.00389 18.3951 4.80375 24.2147 5.30893 29.7914C5.48438 31.6125 6.06987 33.3702 7.0215 34.9328C7.97313 36.4953 9.26619 37.8221 10.8037 38.8136C13.7879 40.9163 17.3491 42.0449 20.9997 42.0449C24.6502 42.0449 28.2115 40.9163 31.1956 38.8136C32.7333 37.8222 34.0266 36.4955 34.9783 34.9329C35.9301 33.3704 36.5156 31.6126 36.6911 29.7914C37.1962 24.2147 33.9961 18.3951 31.1719 14.4375ZM23.8147 33.8289C23.4219 34.3056 22.9005 34.6596 22.3125 34.8487V35.4375C22.3125 35.7856 22.1742 36.1194 21.9281 36.3656C21.6819 36.6117 21.3481 36.75 21 36.75C20.6519 36.75 20.3181 36.6117 20.0719 36.3656C19.8258 36.1194 19.6875 35.7856 19.6875 35.4375V34.7135C19.0925 34.5023 18.5329 34.2024 18.0277 33.8238C17.7621 33.6074 17.5916 33.2958 17.5527 32.9555C17.5137 32.6152 17.6093 32.2731 17.8191 32.0023C18.0289 31.7315 18.3363 31.5535 18.6756 31.5062C19.0149 31.459 19.3592 31.5462 19.635 31.7494C19.649 31.7608 21.1743 32.8874 21.8081 32.1377C22.1625 31.716 22.0991 31.4684 22.0748 31.3751C21.9251 31.0651 21.7103 30.7911 21.4451 30.5717C21.1799 30.3523 20.8705 30.1926 20.538 30.1035C19.8084 29.8767 19.1426 29.4808 18.5949 28.948C18.0472 28.4152 17.633 27.7606 17.3862 27.0375C17.2536 26.4924 17.2572 25.9231 17.3965 25.3797C17.5359 24.8364 17.8068 24.3356 18.1853 23.9216C18.5771 23.4394 19.0982 23.0788 19.6875 22.8821V22.3125C19.6875 21.9644 19.8258 21.6306 20.0719 21.3844C20.3181 21.1383 20.6519 21 21 21C21.3481 21 21.6819 21.1383 21.9281 21.3844C22.1742 21.6306 22.3125 21.9644 22.3125 22.3125V23.0235C22.9085 23.2381 23.4682 23.5425 23.9723 23.9262C24.1135 24.0301 24.2324 24.1613 24.3221 24.3119C24.4118 24.4625 24.4704 24.6296 24.4944 24.8032C24.5185 24.9769 24.5075 25.1536 24.4622 25.3229C24.4168 25.4923 24.338 25.6508 24.2304 25.7892C24.1227 25.9275 23.9885 26.043 23.8355 26.1286C23.6825 26.2142 23.514 26.2683 23.3397 26.2878C23.1655 26.3072 22.9892 26.2915 22.8211 26.2416C22.653 26.1918 22.4966 26.1088 22.3612 25.9975C22.351 25.991 20.8231 24.8632 20.1926 25.6129C19.8375 26.0346 19.9016 26.2823 19.9258 26.3756C20.0756 26.6855 20.2904 26.9595 20.5556 27.179C20.8208 27.3984 21.1302 27.5581 21.4627 27.6472C22.1921 27.874 22.8577 28.2699 23.4053 28.8025C23.9528 29.3352 24.3669 29.9896 24.6138 30.7125C24.7465 31.2577 24.743 31.8271 24.6036 32.3706C24.4642 32.914 24.1933 33.4149 23.8147 33.8289Z" fill="#000000"/>
</g>
<defs>
<clipPath id="clip0_9247_2">
<rect width="42" height="42" fill="white"/>
</clipPath>
</defs>
</svg>
