<svg width="48" height="50" viewBox="0 0 48 50" fill="none" xmlns="http://www.w3.org/2000/svg">
<path d="M24 0C10.7666 0 0 11.1031 0 24.75C0 38.3969 10.7666 49.5 24 49.5C37.2334 49.5 48 38.3969 48 24.75C48 11.1031 37.2334 0 24 0Z" fill="white"/>
<path d="M24 2.0625C36.1308 2.0625 46 12.2401 46 24.75C46 29.7298 44.4177 34.325 41.7699 38.0706C41.5386 37.9155 41.3101 37.7739 41.0781 37.6507C37.0703 35.5288 30.8535 33 24 33C17.1465 33 10.9296 35.5288 6.92088 37.6517C6.6896 37.7745 6.46131 37.9157 6.23013 38.0706C3.58235 34.3248 1.99994 29.7298 1.99994 24.75C1.99994 12.2401 11.8691 2.0625 24 2.0625Z" fill="#000000"/>
<path d="M24.0003 47.4375C17.4227 47.4375 11.5263 44.43 7.49142 39.6961C7.60646 39.6242 7.72242 39.5461 7.83624 39.4856C11.6477 37.4674 17.5462 35.0625 24.0003 35.0625C30.4545 35.0625 36.3528 37.4674 40.1634 39.4846C40.2778 39.5455 40.394 39.6237 40.5093 39.696C36.4743 44.4298 30.5779 47.4375 24.0003 47.4375Z" fill="#000000"/>
<path d="M24 30.9375C30.6274 30.9375 36 25.397 36 18.5625C36 11.728 30.6274 6.1875 24 6.1875C17.3726 6.1875 12 11.728 12 18.5625C12 25.397 17.3726 30.9375 24 30.9375Z" fill="white"/>
<path d="M24 28.8751C29.5228 28.8751 34 24.258 34 18.5625C34 12.8671 29.5228 8.25 24 8.25C18.4771 8.25 13.9999 12.8671 13.9999 18.5625C13.9999 24.258 18.4771 28.8751 24 28.8751Z" fill="#000000"/>
</svg>
