<svg width="20" height="20" viewBox="0 0 20 20" fill="none" xmlns="http://www.w3.org/2000/svg">
<circle cx="10" cy="10" r="10" fill="#FFB800"/>
<path d="M9.54597 3.98433C9.72468 3.5969 10.2753 3.5969 10.454 3.98433L11.8577 7.02756C11.9306 7.18546 12.0802 7.29418 12.2529 7.31466L15.5809 7.70925C16.0046 7.75949 16.1748 8.28318 15.8615 8.57286L13.401 10.8483C13.2734 10.9663 13.2162 11.1423 13.2501 11.3128L13.9032 14.5999C13.9864 15.0184 13.5409 15.342 13.1686 15.1336L10.2442 13.4967C10.0925 13.4118 9.90752 13.4118 9.75578 13.4967L6.8314 15.1336C6.45909 15.342 6.01361 15.0184 6.09676 14.5999L6.74991 11.3128C6.78379 11.1423 6.72664 10.9663 6.59897 10.8483L4.13846 8.57286C3.82521 8.28318 3.99537 7.75949 4.41906 7.70925L7.74711 7.31466C7.91979 7.29418 8.06943 7.18546 8.14227 7.02756L9.54597 3.98433Z" fill="white"/>
</svg>
