<svg width="18" height="21" viewBox="0 0 18 21" fill="none" xmlns="http://www.w3.org/2000/svg">
<path d="M7.88637 16.1598C7.98079 16.3299 8.11713 16.4713 8.28158 16.5697C8.44603 16.668 8.63276 16.7198 8.82286 16.7198C9.01296 16.7198 9.19969 16.668 9.36414 16.5697C9.52859 16.4713 9.66492 16.3299 9.75935 16.1598L13.4985 9.36449C14.0017 8.45912 14.2636 7.43255 14.2577 6.38903C14.2517 5.3455 13.9781 4.32218 13.4646 3.42299C13.001 2.57402 12.3268 1.86748 11.5111 1.3758C10.6955 0.884123 9.76765 0.625 8.82286 0.625C7.87806 0.625 6.95026 0.884123 6.13459 1.3758C5.31891 1.86748 4.64471 2.57402 4.18112 3.42299C3.66761 4.32218 3.39398 5.3455 3.38802 6.38903C3.38206 7.43255 3.64398 8.45912 4.14719 9.36449L7.88637 16.1598ZM5.35512 4.12281C5.69934 3.48588 6.20226 2.95531 6.8119 2.58596C7.42155 2.2166 8.11579 2.02185 8.82286 2.02185C9.52993 2.02185 10.2242 2.2166 10.8338 2.58596C11.4435 2.95531 11.9464 3.48588 12.2906 4.12281C12.6791 4.81386 12.8837 5.59846 12.8837 6.39724C12.8837 7.19601 12.6791 7.98062 12.2906 8.67167L8.82286 15.0261L5.32798 8.67167C4.94362 7.97816 4.7437 7.19225 4.74847 6.39347C4.75324 5.5947 4.96251 4.81139 5.35512 4.12281Z" fill="#151515"/>
<path d="M7.46564 6.92209C7.64562 6.92209 7.81822 6.84836 7.94549 6.71712C8.07276 6.58588 8.14425 6.40788 8.14425 6.22227C8.14425 6.08386 8.18405 5.94856 8.25862 5.83347C8.33319 5.71839 8.43917 5.62869 8.56317 5.57572C8.68718 5.52275 8.82362 5.50889 8.95526 5.5359C9.0869 5.5629 9.20782 5.62955 9.30273 5.72742C9.39763 5.82529 9.46226 5.94999 9.48845 6.08574C9.51463 6.2215 9.50119 6.36221 9.44983 6.49008C9.39847 6.61796 9.31149 6.72726 9.19989 6.80415C9.08829 6.88105 8.95709 6.92209 8.82287 6.92209C8.64289 6.92209 8.47028 6.99583 8.34301 7.12707C8.21575 7.25831 8.14425 7.43631 8.14425 7.62192C8.14425 7.80752 8.21575 7.98552 8.34301 8.11677C8.47028 8.24801 8.64289 8.32174 8.82287 8.32174C9.22552 8.32174 9.61913 8.19861 9.95393 7.96791C10.2887 7.73722 10.5497 7.40933 10.7038 7.0257C10.8578 6.64208 10.8982 6.21994 10.8196 5.81269C10.741 5.40543 10.5472 5.03134 10.2624 4.73772C9.97772 4.44411 9.61496 4.24415 9.22005 4.16314C8.82513 4.08214 8.41579 4.12371 8.04378 4.28262C7.67178 4.44152 7.35382 4.71061 7.13012 5.05587C6.90642 5.40113 6.78702 5.80704 6.78702 6.22227C6.78702 6.40788 6.85851 6.58588 6.98578 6.71712C7.11305 6.84836 7.28565 6.92209 7.46564 6.92209Z" fill="#151515"/>
<path d="M17.5906 18.5322L15.8601 12.7446C15.7808 12.4751 15.6189 12.2394 15.3987 12.0728C15.1784 11.9062 14.9117 11.8178 14.6386 11.8209H13.5732C13.3932 11.8209 13.2206 11.8946 13.0933 12.0258C12.9661 12.1571 12.8946 12.3351 12.8946 12.5207C12.8946 12.7063 12.9661 12.8843 13.0933 13.0156C13.2206 13.1468 13.3932 13.2205 13.5732 13.2205H14.5843L16.2876 18.8191L1.35808 18.8541L3.03426 13.2555H4.07255C4.25253 13.2555 4.42514 13.1818 4.5524 13.0505C4.67967 12.9193 4.75116 12.7413 4.75116 12.5557C4.75116 12.3701 4.67967 12.1921 4.5524 12.0608C4.42514 11.9296 4.25253 11.8559 4.07255 11.8559H3.00712C2.73401 11.8528 2.46731 11.9412 2.24706 12.1078C2.0268 12.2744 1.86489 12.5101 1.78561 12.7796L0.0551342 18.5322C-0.00234256 18.7267 -0.0150955 18.9323 0.0178866 19.1327C0.0508688 19.3331 0.128679 19.5229 0.245147 19.6869C0.367373 19.8514 0.524491 19.9848 0.704462 20.077C0.884434 20.1692 1.08248 20.2177 1.28343 20.2188H16.3623C16.564 20.218 16.7628 20.1689 16.9429 20.0753C17.1231 19.9818 17.2798 19.8465 17.4006 19.6799C17.5174 19.5174 17.5955 19.3289 17.6286 19.1295C17.6616 18.9301 17.6486 18.7254 17.5906 18.5322Z" fill="#151515"/>
</svg>
