<svg width="26" height="28" viewBox="0 0 26 28" fill="none" xmlns="http://www.w3.org/2000/svg">
<path d="M21.2727 0.5H4.72727C4.10648 0.499994 3.49176 0.626086 2.91822 0.871075C2.34468 1.11606 1.82354 1.47515 1.38457 1.92784C0.945605 2.38053 0.597396 2.91795 0.359831 3.50941C0.122265 4.10088 -5.67434e-06 4.7348 1.97506e-10 5.375V22.4375C7.34816e-07 23.7304 0.498051 24.9704 1.38459 25.8846C2.27112 26.7989 3.47352 27.3125 4.72727 27.3125H21.2727C22.5265 27.3125 23.7289 26.7989 24.6154 25.8846C25.5019 24.9704 26 23.7304 26 22.4375V5.375C26 4.7348 25.8777 4.10088 25.6402 3.50941C25.4026 2.91795 25.0544 2.38053 24.6154 1.92784C24.1765 1.47515 23.6553 1.11606 23.0818 0.871075C22.5082 0.626086 21.8935 0.499994 21.2727 0.5ZM22.4545 23.6562H7.09091V7.8125H3.54545V4.15625H7.09091V7.8125H22.4545V23.6562Z" fill="#151515"/>
<path d="M12.4091 15.125H17.1364C17.6065 15.125 18.0574 14.9324 18.3899 14.5896C18.7223 14.2467 18.9091 13.7817 18.9091 13.2969C18.9091 12.812 18.7223 12.347 18.3899 12.0042C18.0574 11.6614 17.6065 11.4688 17.1364 11.4688H12.4091C11.9389 11.4688 11.488 11.6614 11.1556 12.0042C10.8231 12.347 10.6364 12.812 10.6364 13.2969C10.6364 13.7817 10.8231 14.2467 11.1556 14.5896C11.488 14.9324 11.9389 15.125 12.4091 15.125Z" fill="#151515"/>
<path d="M12.4091 20H17.1364C17.6065 20 18.0574 19.8074 18.3899 19.4646C18.7223 19.1217 18.9091 18.6567 18.9091 18.1719C18.9091 17.687 18.7223 17.222 18.3899 16.8792C18.0574 16.5364 17.6065 16.3438 17.1364 16.3438H12.4091C11.9389 16.3438 11.488 16.5364 11.1556 16.8792C10.8231 17.222 10.6364 17.687 10.6364 18.1719C10.6364 18.6567 10.8231 19.1217 11.1556 19.4646C11.488 19.8074 11.9389 20 12.4091 20Z" fill="#151515"/>
</svg>
