<svg fill="none" height="39" viewBox="0 0 39 39" width="39" xmlns="http://www.w3.org/2000/svg">
    <path
        d="M31.5 5.25H29.75V2.625C29.75 1.92881 29.4734 1.26113 28.9812 0.768845C28.4889 0.276562 27.8212 0 27.125 0C26.4288 0 25.7611 0.276562 25.2688 0.768845C24.7766 1.26113 24.5 1.92881 24.5 2.625V5.25H12.25V2.625C12.25 1.92881 11.9734 1.26113 11.4812 0.768845C10.9889 0.276562 10.3212 0 9.625 0C8.92881 0 8.26113 0.276562 7.76885 0.768845C7.27656 1.26113 7 1.92881 7 2.625V5.25C6.08075 5.24999 5.17049 5.43105 4.32121 5.78283C3.47192 6.13461 2.70025 6.65022 2.05023 7.30023C1.40022 7.95025 0.884606 8.72192 0.532826 9.57121C0.181046 10.4205 -8.40239e-06 11.3307 2.92461e-10 12.25V31.5C1.08809e-06 33.3565 0.737499 35.137 2.05025 36.4497C3.36301 37.7625 5.14349 38.5 7 38.5H31.5C33.3565 38.5 35.137 37.7625 36.4497 36.4497C37.7625 35.137 38.5 33.3565 38.5 31.5V12.25C38.5 11.3307 38.319 10.4205 37.9672 9.57121C37.6154 8.72192 37.0998 7.95025 36.4498 7.30023C35.7998 6.65022 35.0281 6.13461 34.1788 5.78283C33.3295 5.43105 32.4193 5.24999 31.5 5.25V5.25ZM9.625 33.25H7.875C7.17881 33.25 6.51113 32.9734 6.01884 32.4812C5.52656 31.9889 5.25 31.3212 5.25 30.625C5.25 29.9288 5.52656 29.2611 6.01884 28.7688C6.51113 28.2766 7.17881 28 7.875 28H9.625C10.3212 28 10.9889 28.2766 11.4812 28.7688C11.9734 29.2611 12.25 29.9288 12.25 30.625C12.25 31.3212 11.9734 31.9889 11.4812 32.4812C10.9889 32.9734 10.3212 33.25 9.625 33.25ZM9.625 24.5H7.875C7.17881 24.5 6.51113 24.2234 6.01884 23.7312C5.52656 23.2389 5.25 22.5712 5.25 21.875C5.25 21.1788 5.52656 20.5111 6.01884 20.0188C6.51113 19.5266 7.17881 19.25 7.875 19.25H9.625C10.3212 19.25 10.9889 19.5266 11.4812 20.0188C11.9734 20.5111 12.25 21.1788 12.25 21.875C12.25 22.5712 11.9734 23.2389 11.4812 23.7312C10.9889 24.2234 10.3212 24.5 9.625 24.5ZM20.125 33.25H18.375C17.6788 33.25 17.0111 32.9734 16.5188 32.4812C16.0266 31.9889 15.75 31.3212 15.75 30.625C15.75 29.9288 16.0266 29.2611 16.5188 28.7688C17.0111 28.2766 17.6788 28 18.375 28H20.125C20.8212 28 21.4889 28.2766 21.9812 28.7688C22.4734 29.2611 22.75 29.9288 22.75 30.625C22.75 31.3212 22.4734 31.9889 21.9812 32.4812C21.4889 32.9734 20.8212 33.25 20.125 33.25ZM20.125 24.5H18.375C17.6788 24.5 17.0111 24.2234 16.5188 23.7312C16.0266 23.2389 15.75 22.5712 15.75 21.875C15.75 21.1788 16.0266 20.5111 16.5188 20.0188C17.0111 19.5266 17.6788 19.25 18.375 19.25H20.125C20.8212 19.25 21.4889 19.5266 21.9812 20.0188C22.4734 20.5111 22.75 21.1788 22.75 21.875C22.75 22.5712 22.4734 23.2389 21.9812 23.7312C21.4889 24.2234 20.8212 24.5 20.125 24.5ZM30.625 33.25H28.875C28.1788 33.25 27.5111 32.9734 27.0188 32.4812C26.5266 31.9889 26.25 31.3212 26.25 30.625C26.25 29.9288 26.5266 29.2611 27.0188 28.7688C27.5111 28.2766 28.1788 28 28.875 28H30.625C31.3212 28 31.9889 28.2766 32.4812 28.7688C32.9734 29.2611 33.25 29.9288 33.25 30.625C33.25 31.3212 32.9734 31.9889 32.4812 32.4812C31.9889 32.9734 31.3212 33.25 30.625 33.25ZM30.625 24.5H28.875C28.1788 24.5 27.5111 24.2234 27.0188 23.7312C26.5266 23.2389 26.25 22.5712 26.25 21.875C26.25 21.1788 26.5266 20.5111 27.0188 20.0188C27.5111 19.5266 28.1788 19.25 28.875 19.25H30.625C31.3212 19.25 31.9889 19.5266 32.4812 20.0188C32.9734 20.5111 33.25 21.1788 33.25 21.875C33.25 22.5712 32.9734 23.2389 32.4812 23.7312C31.9889 24.2234 31.3212 24.5 30.625 24.5ZM31.5 14H28C27.5359 14 27.0908 13.8156 26.7626 13.4874C26.4344 13.1592 26.25 12.7141 26.25 12.25C26.25 11.7859 26.4344 11.3408 26.7626 11.0126C27.0908 10.6844 27.5359 10.5 28 10.5H31.5C31.7299 10.4998 31.9576 10.545 32.1701 10.6329C32.3825 10.7207 32.5756 10.8496 32.7382 11.0121C32.9008 11.1747 33.0299 11.3676 33.1179 11.58C33.2059 11.7924 33.2512 12.0201 33.2512 12.25C33.2512 12.4799 33.2059 12.7076 33.1179 12.92C33.0299 13.1324 32.9008 13.3253 32.7382 13.4879C32.5756 13.6504 32.3825 13.7793 32.1701 13.8671C31.9576 13.955 31.7299 14.0002 31.5 14V14Z"
        fill="#23375A" />
</svg>
