<svg fill="none" height="48" viewBox="0 0 48 48" width="48" xmlns="http://www.w3.org/2000/svg">
    <path
        d="M24 2C11.8497 2 2 11.8497 2 24C2 36.1503 11.8497 46 24 46C36.1503 46 46 36.1503 46 24C46 11.8497 36.1503 2 24 2ZM36.7573 33.2426L30.8284 39.1715C30.5657 39.4342 30.2539 39.6425 29.9108 39.7847C29.5676 39.9268 29.1998 40 28.8284 40C28.457 40 28.0892 39.9268 27.746 39.7847C27.4029 39.6425 27.0911 39.4342 26.8285 39.1715H26.8284C26.298 38.6411 26 37.9217 26 37.1715C26 36.4214 26.298 35.702 26.8284 35.1715L30 32H17C16.2043 32 15.4413 31.6839 14.8787 31.1213C14.3161 30.5587 14 29.7957 14 29C14 28.2044 14.3161 27.4413 14.8787 26.8787C15.4413 26.3161 16.2043 26 17 26H33.7573C34.5964 26 35.4167 26.2488 36.1144 26.715C36.8121 27.1812 37.3559 27.8438 37.677 28.619C37.9982 29.3942 38.0822 30.2473 37.9185 31.0703C37.7548 31.8933 37.3507 32.6492 36.7573 33.2426ZM33 22H16.2427C15.4036 22 14.5833 21.7512 13.8856 21.285C13.1879 20.8188 12.6441 20.1562 12.3229 19.3809C12.0018 18.6057 11.9178 17.7526 12.0815 16.9296C12.2452 16.1066 12.6493 15.3507 13.2427 14.7573L19.1716 8.82837C19.7021 8.29797 20.4215 8 21.1716 8C21.9217 8 22.6411 8.29797 23.1715 8.82837H23.1716C23.702 9.35882 24 10.0782 24 10.8284C24 11.5785 23.702 12.2979 23.1716 12.8284L20 16H33C33.7956 16 34.5587 16.3161 35.1213 16.8787C35.6839 17.4413 36 18.2043 36 19C36 19.7956 35.6839 20.5587 35.1213 21.1213C34.5587 21.6839 33.7956 22 33 22Z"
        fill="#23375A" />
</svg>
