<svg fill="none" height="41" viewBox="0 0 41 41" width="41" xmlns="http://www.w3.org/2000/svg">
    <path
        d="M32.867 0L17.5623 15.4265C16.881 16.1133 16.4987 17.0414 16.4986 18.0088V27.4977L14.6194 29.377C13.5996 28.3431 12.2602 27.6845 10.8187 27.5083C9.37726 27.3322 7.91859 27.6487 6.67987 28.4066C5.44114 29.1645 4.49519 30.3191 3.99582 31.6827C3.49645 33.0463 3.47301 34.5388 3.92932 35.9174C4.38563 37.296 5.29485 38.4798 6.50917 39.2762C7.72349 40.0726 9.17149 40.4348 10.6178 40.304C12.064 40.1731 13.4235 39.557 14.4752 38.5556C15.5269 37.5542 16.209 36.2265 16.4105 34.7884L32.867 18.3318C35.298 15.9009 36.6637 12.6038 36.6637 9.16591C36.6637 5.72803 35.298 2.43095 32.867 0ZM10.0825 36.6636C9.53866 36.6636 9.00702 36.5024 8.55482 36.2002C8.10263 35.8981 7.75018 35.4686 7.54206 34.9661C7.33393 34.4637 7.27948 33.9108 7.38558 33.3774C7.49168 32.844 7.75357 32.354 8.13813 31.9695C8.5227 31.5849 9.01266 31.323 9.54606 31.2169C10.0795 31.1108 10.6324 31.1653 11.1348 31.3734C11.6373 31.5815 12.0667 31.934 12.3689 32.3862C12.671 32.8384 12.8323 33.37 12.8323 33.9139C12.8323 34.275 12.7612 34.6325 12.623 34.9661C12.4848 35.2998 12.2822 35.6029 12.0269 35.8582C11.7716 36.1136 11.4684 36.3161 11.1348 36.4543C10.8012 36.5925 10.4436 36.6636 10.0825 36.6636ZM21.0816 23.8314C20.5378 23.8314 20.0061 23.6701 19.5539 23.3679C19.1017 23.0658 18.7493 22.6363 18.5411 22.1339C18.333 21.6314 18.2786 21.0785 18.3847 20.5451C18.4908 20.0117 18.7527 19.5218 19.1372 19.1372C19.5218 18.7526 20.0117 18.4908 20.5451 18.3847C21.0786 18.2785 21.6314 18.333 22.1339 18.5411C22.6364 18.7493 23.0658 19.1017 23.368 19.5539C23.6701 20.0061 23.8314 20.5377 23.8314 21.0816C23.8314 21.8109 23.5417 22.5103 23.026 23.026C22.5103 23.5416 21.8109 23.8313 21.0816 23.8314Z"
        fill="#23375A" />
    <path
        d="M33.9138 27.4976C33.0711 27.4965 32.2364 27.6619 31.4578 27.9845C30.6792 28.307 29.9721 28.7802 29.3769 29.3768L27.4977 27.4976L23.8313 31.1639L27.6004 34.933C27.7969 36.1406 28.3351 37.2667 29.1514 38.1781C29.9677 39.0895 31.0279 39.7481 32.2066 40.076C33.3854 40.4039 34.6334 40.3874 35.803 40.0284C36.9727 39.6695 38.0151 38.9831 38.807 38.0505C39.5989 37.1178 40.1072 35.9779 40.2717 34.7655C40.4363 33.5531 40.2502 32.319 39.7355 31.209C39.2209 30.099 38.3991 29.1597 37.3674 28.5019C36.3357 27.8442 35.1373 27.4957 33.9138 27.4976ZM33.9138 36.6635C33.3699 36.6635 32.8383 36.5022 32.3861 36.2001C31.9339 35.8979 31.5815 35.4685 31.3733 34.966C31.1652 34.4635 31.1108 33.9107 31.2169 33.3772C31.323 32.8438 31.5849 32.3539 31.9694 31.9693C32.354 31.5848 32.8439 31.3229 33.3773 31.2168C33.9107 31.1107 34.4636 31.1651 34.9661 31.3732C35.4685 31.5814 35.898 31.9338 36.2002 32.386C36.5023 32.8382 36.6636 33.3698 36.6636 33.9137C36.6636 34.2748 36.5924 34.6324 36.4543 34.966C36.3161 35.2996 36.1135 35.6027 35.8582 35.8581C35.6028 36.1134 35.2997 36.316 34.9661 36.4542C34.6325 36.5924 34.2749 36.6635 33.9138 36.6635Z"
        fill="#23375A" />
    <path
        d="M12.8323 25.6645V23.8314C12.3461 23.8314 11.8798 23.6382 11.536 23.2944C11.1922 22.9506 10.9991 22.4844 10.9991 21.9982V20.165H9.16591C8.67993 20.1647 8.21398 19.9714 7.87046 19.6276C7.52695 19.2839 7.33398 18.8178 7.33398 18.3318C7.33398 17.8458 7.52695 17.3798 7.87046 17.036C8.21398 16.6923 8.67993 16.499 9.16591 16.4986H12.8323V14.6655H10.0825C9.48066 14.6655 8.88471 14.5469 8.32868 14.3166C7.77265 14.0863 7.26743 13.7487 6.84186 13.3231C6.41629 12.8976 6.07872 12.3923 5.8484 11.8363C5.61809 11.2803 5.49954 10.6843 5.49954 10.0825C5.49954 9.48066 5.61809 8.88471 5.8484 8.32868C6.07872 7.77265 6.41629 7.26743 6.84186 6.84186C7.26743 6.41629 7.77265 6.07872 8.32868 5.8484C8.88471 5.61809 9.48066 5.49954 10.0825 5.49954H10.9991V3.66636C10.9994 3.18039 11.1927 2.71444 11.5365 2.37092C11.8802 2.0274 12.3463 1.83444 12.8323 1.83444C13.3182 1.83444 13.7843 2.0274 14.1281 2.37092C14.4718 2.71444 14.6651 3.18039 14.6655 3.66636V5.49954H16.4986C16.7395 5.49938 16.978 5.54668 17.2005 5.63873C17.4231 5.73078 17.6253 5.86578 17.7957 6.03603C17.9661 6.20627 18.1012 6.40841 18.1934 6.63091C18.2856 6.8534 18.3331 7.09188 18.3331 7.33273C18.3331 7.57357 18.2856 7.81205 18.1934 8.03454C18.1012 8.25704 17.9661 8.45918 17.7957 8.62943C17.6253 8.79967 17.4231 8.93467 17.2005 9.02673C16.978 9.11878 16.7395 9.16607 16.4986 9.16591H10.0825C9.96206 9.16579 9.84277 9.18941 9.73146 9.23542C9.62015 9.28144 9.519 9.34893 9.4338 9.43406C9.34859 9.51918 9.28099 9.62027 9.23488 9.73153C9.18876 9.84279 9.16502 9.96206 9.16502 10.0825C9.16502 10.2029 9.18876 10.3222 9.23488 10.4335C9.28099 10.5447 9.34859 10.6458 9.4338 10.7309C9.519 10.8161 9.62015 10.8836 9.73146 10.9296C9.84277 10.9756 9.96206 10.9992 10.0825 10.9991H15.582C15.8616 11.0016 16.1403 11.0297 16.4147 11.083L27.4977 3.06362e-10H7.33273C6.36978 -8.80178e-06 5.41625 0.189652 4.5266 0.558153C3.63695 0.926654 2.82859 1.46678 2.14769 2.14769C1.46678 2.82859 0.926653 3.63695 0.558153 4.5266C0.189652 5.41625 -8.80178e-06 6.36978 3.06362e-10 7.33273V18.3318C1.36771e-06 20.2766 0.772555 22.1417 2.14771 23.5168C3.52286 24.892 5.38797 25.6645 7.33273 25.6645H12.8323Z"
        fill="#23375A" />
</svg>
