<svg fill="none" height="17" viewBox="0 0 17 17" width="17" xmlns="http://www.w3.org/2000/svg">
    <path
        d="M5 0C5.08464 0 5.08464 1.86265e-08 5.16602 0.084635C5.25065 0.169271 5.5013 0.416667 5.5013 0.585938C5.5013 0.751952 5.5013 1.16862 5.58268 1.50065C5.7487 1.91732 5.91797 3.0013 6.16536 3.58398C6.41602 4.16667 6.50065 4.50195 6.25 4.83398C5.99935 5.25065 4.41732 6.83594 4.41732 6.83594C4.41732 6.83594 4.83398 7.66927 5.33203 8.16732C5.7487 8.75 6.41602 9.58333 7.24935 10.2507C8.08268 11.0026 9.00065 11.6667 9.91536 12.0833C10.8333 11.1686 11.582 10.4167 11.8327 10.2507C12.0833 10.0846 12.0833 10 12.5 10.1693C12.9167 10.3353 13.4993 10.5859 14.1667 10.6673C14.7493 10.752 15.4167 10.8333 15.8333 10.918C16.25 11.0026 16.25 11.0026 16.3346 11.1686C16.5006 11.3346 16.582 11.5853 16.582 11.6667C16.582 11.7513 16.582 12.002 16.582 12.8353C16.582 13.6686 16.582 14.834 16.582 15.0846C16.582 15.3353 16.582 15.3353 16.5007 15.5013C16.416 15.6673 16.3346 16.084 16.3346 16.084C16.3346 16.1686 15.918 16.3346 15.6673 16.3346C15.4167 16.3346 14.4987 16.3346 13.916 16.25C13.3333 16.1686 11.7513 15.8333 11.1654 15.5859C10.5827 15.4167 8.66536 14.7526 6.33464 13.0013C4.16667 11.3346 2.58464 9.08529 1.66667 7.2526C0.748698 5.41667 0.250651 3.41797 0.166016 2.41862C-1.24176e-08 1.41927 0 1.0026 0 0.751953C0.0846358 0.501302 0.332032 0.250651 0.501302 0.169271C0.667317 0.084635 0.917969 0 1.16536 0C1.41602 0 2.08333 0 3.0013 0C3.91602 0 5 0 5 0Z"
        fill="white" />
</svg>
